<svg width="278" height="279" viewBox="0 0 278 279" fill="none" xmlns="http://www.w3.org/2000/svg">
<path d="M218.759 99.0315L71.1432 198.099C66.0689 201.504 64.7034 208.442 68.1089 213.517L105.259 268.873C108.665 273.947 115.603 275.313 120.677 271.907L268.293 172.84C273.368 169.434 274.733 162.496 271.328 157.422L234.177 102.066C230.772 96.9915 223.834 95.6261 218.759 99.0315ZM135.972 234.88C125.823 241.691 111.947 238.96 105.136 228.811C98.3252 218.663 101.056 204.787 111.205 197.976C121.353 191.165 135.229 193.896 142.04 204.044C148.851 214.193 146.12 228.069 135.972 234.88ZM156.842 6.77132L9.22602 105.839C4.15171 109.244 2.78627 116.182 6.19172 121.257L43.342 176.613C46.7475 181.687 53.6854 183.052 58.7598 179.647L206.376 80.5795C211.45 77.174 212.816 70.236 209.41 65.1617L172.26 9.80562C168.855 4.73131 161.917 3.36587 156.842 6.77132ZM74.0544 142.62C63.9058 149.431 50.0298 146.7 43.2189 136.551C36.408 126.403 39.1389 112.527 49.2875 105.716C59.4361 98.9048 73.3121 101.636 80.123 111.784C86.9339 121.933 84.203 135.809 74.0544 142.62Z" fill="#9BA5FF"/>
</svg>
